<svg xmlns="http://www.w3.org/2000/svg" xmlns:xlink="http://www.w3.org/1999/xlink" viewBox="0 0 4639 4049.222">
  <defs>
    <style>
      .cls-1 {
        fill: url(#radial-gradient);
      }

      .cls-2 {
        fill: #3959a8;
      }

      .cls-3 {
        fill: #002b64;
      }

      .cls-4, .cls-5 {
        fill: none;
        stroke: #e3e3e3;
        stroke-linecap: round;
        stroke-miterlimit: 10;
      }

      .cls-4 {
        stroke-width: 7px;
      }

      .cls-5 {
        stroke-width: 15px;
      }
    </style>
    <radialGradient id="radial-gradient" cx="2319.5" cy="2024.611" r="2177.054" gradientUnits="userSpaceOnUse">
      <stop offset="0" stop-color="#acd6ea"/>
      <stop offset="0.233" stop-color="#add6ea" stop-opacity="0.989"/>
      <stop offset="0.373" stop-color="#b0d8eb" stop-opacity="0.953"/>
      <stop offset="0.488" stop-color="#b5daec" stop-opacity="0.892"/>
      <stop offset="0.59" stop-color="#bcdeee" stop-opacity="0.805"/>
      <stop offset="0.684" stop-color="#c5e3f0" stop-opacity="0.693"/>
      <stop offset="0.771" stop-color="#d1e8f3" stop-opacity="0.555"/>
      <stop offset="0.853" stop-color="#dfeff7" stop-opacity="0.39"/>
      <stop offset="0.929" stop-color="#eef7fb" stop-opacity="0.205"/>
      <stop offset="1" stop-color="#fff" stop-opacity="0"/>
    </radialGradient>
  </defs>
  <g id="BG">
    <rect id="BG-2" data-name="BG" class="cls-1" width="4639" height="4049.222"/>
  </g>
  <g id="sjosjo">
    <path id="SjönSjön" class="cls-2" d="M202.143,1707.956c-3.641-3.641-8.973-20.007,7.283-40.055,16.361-20.177,32.772-23.062,33.986-53.407s-10.924-26.7-9.71-40.055,35.2-48.551,35.2-48.551a47.906,47.906,0,0,1,46.124-7.283c26.7,9.71,42.482-16.993,36.413-26.7s-21.848-21.849-8.5-30.345,26.7-3.641,30.344-29.131-6.068-27.917-1.213-35.2,9.71-19.42,35.2-20.634c3.641,0,14.887,12.34,20.634-1.214,5.725-13.5,0-21.848,16.993-24.276s15.779-7.283,27.917-3.641,21.848-4.855,27.917,3.641,8.5,14.566,3.642,23.062-16.322,26.913-19.421,49.765c-2.868,21.15,1.419,37.359,14.566,46.124,1.213,1.214,7.54,15.01-23.062,42.483-6.069,4.855-22.024,8.612-26.7,25.49-4.659,16.8-25.489,37.627-27.917,40.055s-20.714,29.25-32.772,81.323c-2.428,14.566-1.825,21.363,0,50.98,1.644,26.68-55.835,4.855-80.11,7.282-7.283,0-12.373-6.449-20.635-18.206-8.937-12.718-31.224-21.192-42.482-2.428C234.916,1715.239,215.5,1722.522,202.143,1707.956Z" transform="translate(1593 1034.611)"/>
  </g>
  <g id="core">
    <polygon id="Kårhuset" class="cls-3" points="2195.694 1542.13 2207.831 1526.351 2180.141 1505.884 2254.115 1353.055 2199.879 1326.802 2098.59 1536.061 2117.458 1545.194 2040.144 1652.4 2185.465 1757.202 2291.25 1610.519 2195.694 1542.13"/>
  </g>
  <g id="Ehus">
    <polygon id="E-Huset" class="cls-3" points="2755.25 2206.072 2755.25 2175.728 2740.685 2175.728 2740.685 2150.238 2631.444 2150.238 2631.444 2072.556 2718.836 2072.556 2718.836 2040.997 2709.126 2040.997 2709.126 2016.721 2631.444 2016.721 2544.051 2016.721 2544.051 2003.37 2500.355 2003.37 2500.355 2016.721 2462.727 2016.721 2462.727 2184.224 2439.665 2184.224 2439.665 2193.935 2388.686 2193.935 2388.686 2259.479 2437.238 2259.479 2437.238 2374.789 2398.396 2374.789 2398.396 2431.837 2462.727 2431.837 2462.727 2511.947 2494.286 2511.947 2494.286 2545.933 2461.513 2545.933 2457.872 2545.933 2426.313 2545.933 2426.313 2573.85 2438.451 2573.85 2438.451 2601.768 2461.513 2601.768 2501.568 2601.768 2596.244 2601.768 2631.444 2601.768 2678.781 2601.768 2678.781 2573.85 2687.278 2573.85 2687.278 2544.719 2631.444 2544.719 2631.444 2465.823 2755.25 2465.823 2755.25 2435.478 2740.685 2435.478 2740.685 2409.989 2631.444 2409.989 2631.444 2334.734 2755.25 2334.734 2755.25 2304.389 2740.685 2304.389 2740.685 2278.9 2631.444 2278.9 2631.444 2206.072 2755.25 2206.072"/>
  </g>
  <g id="Vhus">
    <path id="V-Huset" class="cls-3" d="M1295.767,412.843V269.616H1193.809V412.843h-65.545V331.52H1070v63.117H993.534V466.25H1070v72.827H993.534V645.891H1070v99.531h58.262v-105.6h65.545V843.738h101.958V639.822h131.089V412.843ZM1193.809,611.905h-65.545V440.761h65.545Z" transform="translate(1593 1034.611)"/>
  </g>
  <g id="Annex">
    <rect id="Annexet" class="cls-3" x="97.071" y="1147.457" width="206.888" height="148.938" transform="translate(1489.118 1056.265) rotate(-4.912)"/>
  </g>
  <g id="IslandIsland">
    <path id="ÖnÖn" class="cls-3" d="M302.888,1574.439c7.282-2.427,9.71,8.5,24.276-1.214,15.382-10.255,27.917-8.5,31.558,7.283,1.214,3.642-14.912,9.312-4.855,14.566,0,0,30.345,16.993,12.138,30.344-1.214,1.214-12.138,0-15.78,0-2.427,0-9.438,19.775-24.275,8.5-15.279-11.613-27.917-12.138-26.7-19.421s9.108-7.32,9.711-12.138C310.17,1592.646,299.246,1575.653,302.888,1574.439Z" transform="translate(1593 1034.611)"/>
  </g>
  <g id="StudieC">
    <polygon id="StudieC-2" data-name="StudieC" class="cls-3" points="2295.241 1990.25 2301.693 1965.77 2277.045 1959.274 2270.593 1983.754 2196.187 1964.144 2151.696 2132.962 2323.56 2178.256 2368.052 2009.439 2295.241 1990.25"/>
  </g>
  <g id="BikeRoads">
    <g id="Cykel_Gångstig" data-name="Cykel&amp;Gångstig">
      <path class="cls-4" d="M306.529,962.69l34.954,65.086a6.117,6.117,0,0,1,.411.952l36.053,108.161a6.091,6.091,0,0,1,.269,1.2l19.347,162.034,29.983-4.8a5.922,5.922,0,0,1,.728-.072l157.917-6.027a6.046,6.046,0,0,1,1.433.115l119.455,24.133" transform="translate(1593 1034.611)"/>
      <path class="cls-4" d="M713.148,1315.9l-6.039,51.939c-.02.169-.047.338-.081.505l-16.942,83.5L646.5,1669.759a6.088,6.088,0,0,1-.334,1.107l-21.4,52.307a6.067,6.067,0,0,1-.567,1.068L585.7,1782s-308.156-33.988-431.926-26.44a12.124,12.124,0,0,1-12.844-11.609l-4.259-102.2a8.491,8.491,0,0,0-.841-3.347l-71.492-147.75a8.485,8.485,0,0,1-.757-2.464l-5.519-37.528a8.487,8.487,0,0,1,.653-4.711l14.407-32.139a6.063,6.063,0,0,1,.93-1.467L94.5,1388.488a6.075,6.075,0,0,1,1.99-1.525l26.43-12.64a5.885,5.885,0,0,1,.679-.276l103.749-34.985c.192-.065.388-.12.586-.166l169.633-38.773" transform="translate(1593 1034.611)"/>
      <path class="cls-4" d="M1072.43,1656.977,939.258,1625.5a5.934,5.934,0,0,1-.678-.2l-93.129-33.865-108.875,22.985a5.914,5.914,0,0,1-.738.109l-79.644,6.784" transform="translate(1593 1034.611)"/>
      <path class="cls-4" d="M690.575,1449.439l58.511,75.832a6.042,6.042,0,0,0,1.092,1.093l63.246,48.926a5.988,5.988,0,0,0,1,.628l31.028,15.514" transform="translate(1593 1034.611)"/>
    </g>
  </g>
  <g id="Roads">
    <g id="Vägar">
      <path class="cls-5" d="M1576.152,491.74c-1.214,18.207-27.917,168.716-29.131,186.923s-80.11,294.951-80.11,294.951L824.817,888.649,705.866,865.587,288.322,744.208,202.851,549.523a3.64,3.64,0,0,1,2.789-5.064C224.6,541.6,296.391,529.832,339.3,509.947c49.766-23.062,115.31-84.966,139.586-139.586s93.462-202.7,93.462-202.7" transform="translate(1593 1034.611)"/>
      <polyline class="cls-5" points="3005.291 2624.83 3042.918 2110.183 3059.911 2008.225"/>
      <path class="cls-5" d="M-170.49,1073.145l121.379-9.711,41.831-8.366a6.054,6.054,0,0,0,1.268-.4c8.585-3.812,104.747-47.323,151.107-104.114,48.552-59.476,143.227-206.344,143.227-206.344" transform="translate(1593 1034.611)"/>
      <path class="cls-5" d="M215.315,853.932l26.274,16.135a6.083,6.083,0,0,1,1.115.881l30.426,30.425a6.044,6.044,0,0,1,1.048,1.408l32.351,59.909" transform="translate(1593 1034.611)"/>
      <path class="cls-5" d="M713.148,1313.475l35.074-78.613a6.045,6.045,0,0,0,.223-.578l55.632-169.315a6.129,6.129,0,0,0,.175-.651L825.9,960.869a6.092,6.092,0,0,0,.128-1.227l.2-70.806,54.356-252.35a5.941,5.941,0,0,1,.163-.6L949.728,424.1a6.144,6.144,0,0,1,.256-.656l117.591-255.789" transform="translate(1593 1034.611)"/>
      <path class="cls-5" d="M-49.73,1063.484l13.577,43.6a5.994,5.994,0,0,0,1.22,2.184c7.67,8.742,67.364,81.446,121.766,284.322" transform="translate(1593 1034.611)"/>
    </g>
  </g>
</svg>
